<svg width="16" height="12" viewBox="0 0 16 12" fill="none" xmlns="http://www.w3.org/2000/svg">
<path d="M5.74879 11.8435C5.6643 11.9059 5.56834 11.9511 5.46639 11.9764C5.36444 12.0017 5.2585 12.0067 5.15462 11.9911C4.94483 11.9596 4.75616 11.846 4.63012 11.6753C4.50408 11.5047 4.45099 11.2909 4.48253 11.0812C4.51407 10.8714 4.62766 10.6827 4.79831 10.5566C5.19499 10.2611 5.63591 10.03 6.10474 9.87214C6.59115 9.70799 7.1012 9.62474 7.61456 9.62572C8.12661 9.62517 8.6353 9.70841 9.12047 9.87214C9.5893 10.03 10.0302 10.2611 10.4269 10.5566C10.5976 10.6827 10.7111 10.8714 10.7427 11.0812C10.7742 11.2909 10.7211 11.5047 10.5951 11.6753C10.4691 11.846 10.2804 11.9596 10.0706 11.9911C9.8608 12.0226 9.64707 11.9696 9.47642 11.8435C9.21649 11.6482 8.92741 11.4951 8.61981 11.3898C8.29639 11.2778 7.9568 11.2197 7.61456 11.2177C7.27428 11.2163 6.93607 11.2705 6.61323 11.3781C6.30215 11.4862 6.01033 11.6433 5.74879 11.8435ZM4.25853 9.10549C5.26692 8.4829 6.42946 8.15501 7.61456 8.15892C8.79755 8.15359 9.95852 8.47872 10.9667 9.09767C11.0561 9.15289 11.1554 9.18996 11.2591 9.20678C11.3628 9.22359 11.4688 9.21981 11.5711 9.19566C11.6733 9.1715 11.7698 9.12745 11.855 9.066C11.9403 9.00456 12.0125 8.92694 12.0678 8.83756C12.123 8.74818 12.1601 8.6488 12.1769 8.5451C12.1937 8.4414 12.1899 8.33539 12.1657 8.23315C12.1416 8.13091 12.0975 8.03442 12.0361 7.9492C11.9746 7.86398 11.897 7.7917 11.8076 7.73648C10.5472 6.96092 9.09449 6.55438 7.61456 6.56305C6.13333 6.55385 4.67924 6.9604 3.41756 7.73648C3.32819 7.7917 3.25056 7.86398 3.18912 7.9492C3.12768 8.03442 3.08362 8.13091 3.05947 8.23315C3.03531 8.33539 3.03154 8.4414 3.04835 8.5451C3.06516 8.6488 3.10223 8.74818 3.15745 8.83756C3.21267 8.92694 3.28495 9.00456 3.37017 9.066C3.45539 9.12745 3.55188 9.1715 3.65412 9.19566C3.75636 9.21981 3.86236 9.22359 3.96607 9.20678C4.06977 9.18996 4.16915 9.15289 4.25853 9.09767L4.25853 9.10549ZM2.75262 6.19146C4.23277 5.32718 5.9162 4.87224 7.63021 4.87329C9.34291 4.87274 11.025 5.32768 12.5039 6.19146C12.5945 6.24462 12.6948 6.27941 12.7989 6.29383C12.903 6.30825 13.0089 6.30203 13.1106 6.27551C13.2123 6.249 13.3078 6.20271 13.3916 6.1393C13.4754 6.07588 13.5459 5.99658 13.5991 5.90592C13.6523 5.81526 13.687 5.71501 13.7015 5.61091C13.7159 5.50681 13.7097 5.40088 13.6832 5.29918C13.6566 5.19748 13.6104 5.102 13.5469 5.01819C13.4835 4.93438 13.4042 4.86388 13.3136 4.81071C11.5914 3.80089 9.63049 3.27014 7.63412 3.27351C5.63042 3.26686 3.66142 3.79625 1.93121 4.8068C1.74759 4.91573 1.61477 5.09313 1.56195 5.29999C1.50914 5.50685 1.54066 5.72621 1.64958 5.90983C1.75851 6.09345 1.93592 6.22627 2.14277 6.27909C2.34963 6.3319 2.569 6.30038 2.75262 6.19146ZM1.22715 3.28915C3.17776 2.17748 5.38506 1.59498 7.63021 1.5994C9.87405 1.59548 12.08 2.17797 14.0294 3.28915C14.1205 3.34052 14.2209 3.37342 14.3248 3.38599C14.4287 3.39855 14.5341 3.39053 14.6349 3.36238C14.7356 3.33424 14.8299 3.28651 14.9123 3.22193C14.9946 3.15735 15.0634 3.07719 15.1148 2.98602C15.1662 2.89484 15.1991 2.79444 15.2116 2.69055C15.2242 2.58666 15.2162 2.48131 15.188 2.38052C15.1599 2.27973 15.1121 2.18547 15.0476 2.10312C14.983 2.02077 14.9028 1.95195 14.8116 1.90059C12.62 0.652251 10.1407 -0.0029639 7.61847 -0.000385194C5.08964 -0.00618929 2.60321 0.649128 0.405741 1.90059C0.221605 2.00432 0.0862213 2.17696 0.0293718 2.38052C-0.0274776 2.58408 -0.00113564 2.80188 0.102603 2.98602C0.206341 3.17015 0.378978 3.30553 0.582536 3.36238C0.786093 3.41923 1.0039 3.39289 1.18803 3.28915" fill="white"/>
</svg>
