<svg width="30" height="28" viewBox="0 0 30 28" fill="none" xmlns="http://www.w3.org/2000/svg">
<path fill-rule="evenodd" clip-rule="evenodd" d="M15 0.666666C16.1553 0.666666 17.1792 1.41056 17.5362 2.50929L19.6316 8.95846H26.4127C27.568 8.95846 28.5918 9.70236 28.9488 10.8011C29.3058 11.8998 28.9147 13.1035 27.9801 13.7825L22.4941 17.7683L24.5896 24.2175C24.9466 25.3162 24.5555 26.5199 23.6209 27.1989C22.6862 27.878 21.4206 27.878 20.486 27.1989L15 23.2131L9.51402 27.1989C8.57938 27.878 7.3138 27.878 6.37916 27.1989C5.44453 26.5199 5.05344 25.3162 5.41044 24.2175L7.5059 17.7683L2.01991 13.7825C1.08527 13.1035 0.694186 11.8998 1.05118 10.8011C1.40818 9.70236 2.43206 8.95846 3.58733 8.95846H10.3684L12.4639 2.50929C12.8209 1.41056 13.8447 0.666666 15 0.666666ZM12.3058 11.6251H3.58733L10.6408 16.7497L7.94659 25.0415L15 19.9169L22.0534 25.0415L19.3593 16.7497L26.4127 11.6251H17.6942L15 3.33333L12.3058 11.6251Z" fill="black"/>
</svg>
